<!-- created by svgstack.com | Attribution is required. --><svg width="201" height="201" viewBox="0 0 201 201" fill="none" xmlns="http://www.w3.org/2000/svg"><path d="M100.809 200.812H100.369C45.3513 200.812 0.589355 156.037 0.589355 101.002V100.562C0.589355 45.528 45.3513 0.75293 100.369 0.75293H100.809C155.827 0.75293 200.589 45.528 200.589 100.562V101.002C200.589 156.037 155.827 200.812 100.809 200.812ZM100.369 7.52472C49.0814 7.52472 7.35915 49.2593 7.35915 100.562V101.002C7.35915 152.305 49.0814 194.04 100.369 194.04H100.809C152.097 194.04 193.82 152.305 193.82 101.002V100.562C193.82 49.2593 152.097 7.52472 100.809 7.52472H100.369Z" fill="#383D38"/><path d="M43.1646 47.8984L87.7234 107.49L42.8871 155.942H52.9808L92.2389 113.524L123.955 155.942H158.299L111.235 92.9985L152.971 47.8984H142.877L106.726 86.9648L77.5146 47.8984H43.1713H43.1646ZM58.004 55.3338H73.7776L143.446 148.507H127.672L58.004 55.3338Z" fill="#383D38"/></svg> 